{
  "scenes" : [ 
    {
      "nodes" : [ 0 ]
    } ],
  
  "nodes" : [ 
    {
      "mesh" : 0,
      "children": [1, 3]
    },
    {
      "mesh" : 0,
      "children": [2],
      "matrix": [
        1, 0, 0, 0,
        0, 1, 0, 0,
        0, 0, 1, 0,
        1, 1, 1, 1]
    },
    {
      "mesh" : 0,
      "matrix": [
        1, 0, 0, 0,
        0, 0.866, 0.5, 0,
        0, -0.5, 0.866, 0,
        1, 1, 1, 1]
    },
    {
      "mesh" : 0,
      "matrix": [
        1, 0, 0, 0,
        0, 0.866, 0.5, 0,
        0, -0.5, 0.866, 0,
        2, 2, 2, 1]
    }  ],
  
  "meshes" : [ {
    "primitives" : [ {
      "attributes" : {
        "POSITION" : 1
      },
      "indices" : 0
    } ]
  } ],
  
  "buffers" : [ {
    "uri" : "data:application/gltf-buffer;base64,",
    "byteLength" : 284
  } ],
  
  "bufferViews" : [ {
    "buffer" : 0,
    "byteOffset" : 0,
    "byteLength" : 72,
    "target" : 34963
  }, {
    "buffer" : 0,
    "byteOffset" : 72,
    "byteLength" : 168
  }, {
    "buffer" : 0,
    "byteOffset" : 240,
    "byteLength" : 6
  }, {
    "buffer" : 0,
    "byteOffset" : 248,
    "byteLength" : 36
  } ],
  
  "accessors" : [ {
    "bufferView" : 0,
    "byteOffset" : 0,
    "componentType" : 5123,
    "count" : 36,
    "type" : "SCALAR",
    "max" : [ 13 ],
    "min" : [ 0 ]
  }, {
    "bufferView" : 1,
    "byteOffset" : 0,
    "componentType" : 5126,
    "count" : 14,
    "type" : "VEC3",
    "max" : [ 6.0, 4.0, 0.0 ],
    "min" : [ 0.0, 0.0, 0.0 ]
  } ],
  
  "asset" : {
    "version" : "2.0"
  }
}